<svg width="20" height="10" viewBox="0 0 20 10" fill="none" xmlns="http://www.w3.org/2000/svg">
<path d="M0 2C0 0.89543 0.895431 0 2 0H18C19.1046 0 20 0.895431 20 2V8C20 9.10457 19.1046 10 18 10H2C0.895431 10 0 9.10457 0 8V2Z" fill="#019DDE"/>
<path fill-rule="evenodd" clip-rule="evenodd" d="M8.56071 8.49564L8.69703 7.67007L8.39337 7.66331H6.94336L7.95107 1.57102C7.95421 1.55257 7.96435 1.53544 7.97918 1.52326C7.99407 1.51108 8.01305 1.50439 8.03291 1.50439H10.4779C11.2896 1.50439 11.8497 1.66542 12.1422 1.98328C12.2793 2.1324 12.3666 2.28827 12.4089 2.45973C12.4532 2.63969 12.4539 2.85466 12.4107 3.11691L12.4076 3.13598V3.30404L12.5447 3.37811C12.6601 3.43651 12.7519 3.50335 12.8223 3.57985C12.9395 3.70739 13.0154 3.86946 13.0474 4.06153C13.0806 4.2591 13.0696 4.49426 13.0154 4.76047C12.9528 5.06664 12.8517 5.33334 12.7151 5.55151C12.5895 5.75257 12.4295 5.91937 12.2394 6.04857C12.058 6.17137 11.8424 6.26459 11.5987 6.32425C11.3625 6.38287 11.0933 6.41246 10.7979 6.41246H10.6077C10.4716 6.41246 10.3395 6.45917 10.2357 6.54291C10.1317 6.6284 10.0629 6.74522 10.0418 6.87296L10.0274 6.94731L9.78658 8.4025L9.7757 8.45589C9.77278 8.47281 9.76782 8.48123 9.76051 8.48694C9.75402 8.49216 9.74467 8.49564 9.73554 8.49564H8.56071Z" fill="#28356A"/>
<path fill-rule="evenodd" clip-rule="evenodd" d="M12.6748 3.15576C12.6676 3.20025 12.6592 3.24571 12.6499 3.29242C12.3274 4.87089 11.2243 5.41619 9.81548 5.41619H9.09814C8.92584 5.41619 8.78061 5.53544 8.75382 5.69751L8.28253 8.54793C8.26508 8.65437 8.35109 8.75024 8.46367 8.75024H9.73597C9.8866 8.75024 10.0146 8.64588 10.0383 8.50421L10.0508 8.4426L10.2903 6.99313L10.3058 6.91363C10.3292 6.77147 10.4575 6.66705 10.6081 6.66705H10.7984C12.031 6.66705 12.996 6.1899 13.2781 4.809C13.3958 4.23216 13.3349 3.75049 13.0231 3.41174C12.9288 3.30961 12.8117 3.22482 12.6748 3.15576Z" fill="white"/>
<path fill-rule="evenodd" clip-rule="evenodd" d="M12.3377 3.02733C12.2884 3.01362 12.2376 3.00123 12.1855 2.99002C12.133 2.97909 12.0794 2.96941 12.0241 2.96092C11.8307 2.93112 11.6187 2.91699 11.3917 2.91699H9.47541C9.42817 2.91699 9.38334 2.92716 9.34326 2.94553C9.25484 2.98605 9.1892 3.06583 9.17329 3.1635L8.76559 5.62554L8.75391 5.69731C8.7807 5.53525 8.92592 5.41599 9.09823 5.41599H9.81557C11.2244 5.41599 12.3275 4.87041 12.65 3.29222C12.6596 3.24551 12.6677 3.20005 12.6749 3.15557C12.5934 3.11428 12.505 3.07899 12.4099 3.04891C12.3864 3.04147 12.3621 3.03429 12.3377 3.02733Z" fill="#2450A5"/>
<path fill-rule="evenodd" clip-rule="evenodd" d="M9.17295 3.16346C9.18887 3.06579 9.2545 2.98601 9.34292 2.94577C9.3833 2.92733 9.42783 2.91716 9.47507 2.91716H11.3914C11.6184 2.91716 11.8304 2.93136 12.0238 2.96116C12.079 2.96958 12.1327 2.97933 12.1851 2.99026C12.2372 3.0014 12.2881 3.01386 12.3373 3.0275C12.3618 3.03446 12.386 3.0417 12.4098 3.04888C12.5049 3.07895 12.5933 3.11452 12.6749 3.15553C12.7708 2.57221 12.6741 2.17506 12.3433 1.81542C11.9786 1.41945 11.3205 1.25 10.4783 1.25H8.03331C7.86129 1.25 7.71454 1.36925 7.68797 1.5316L6.6696 7.68655C6.64952 7.80831 6.74801 7.91816 6.87681 7.91816H8.38625L9.17295 3.16346Z" fill="#012F86"/>
</svg>
