<svg width="20" height="21" viewBox="0 0 20 21" fill="none" xmlns="http://www.w3.org/2000/svg">
<path d="M9.11917 18.1898C4.07452 18.1898 0 14.1153 0 9.11917C0 4.12303 4.07452 0 9.11917 0C14.1638 0 18.2383 4.07452 18.2383 9.11917C18.2383 10.8169 17.7533 12.4176 16.9772 13.7758C16.9287 13.8243 16.8802 13.8243 16.8802 13.7273C16.5406 11.496 15.1824 10.2833 13.2422 9.89527C13.0482 9.84676 13.0482 9.74975 13.2907 9.74975C13.9213 9.70124 14.7459 9.70124 15.2309 9.79825C15.2795 9.55572 15.2795 9.31319 15.2795 9.11917C15.2795 5.82074 12.5631 3.1044 9.26468 3.1044C5.96626 3.1044 3.24992 5.82074 3.24992 9.11917C3.24992 12.4176 5.96626 15.1339 9.26468 15.1339H9.55572C9.45871 14.6004 9.4102 14.0668 9.45871 13.4847C9.45871 13.0967 9.55572 13.0482 9.70124 13.3392C10.5258 14.7944 11.7385 16.0556 14.0668 16.5891C15.9585 17.0257 17.8503 17.5107 19.936 20.0816C20.1301 20.3241 19.839 20.5666 19.645 20.3726C17.5592 18.5294 15.6675 17.8988 13.9213 17.8988C11.7385 17.9473 10.4288 18.1898 9.11917 18.1898Z" fill="#F28A1A"/>
</svg>
