<svg width="20" height="20" viewBox="0 0 20 20" fill="none" xmlns="http://www.w3.org/2000/svg">
<path d="M12.6667 9.47619L10.5238 7.14286L8.14286 9.2381L10.2857 11.619L12.6667 9.47619Z" fill="#137ABE"/>
<path d="M6.42857 5.2381L8.57143 7.57143L10.9524 5.47619L8.80952 3.14286L6.42857 5.2381Z" fill="#137ABE"/>
<path d="M14.3333 13.5238L12.1905 11.1905L9.80952 13.3333L11.9524 15.6667L14.3333 13.5238Z" fill="#137ABE"/>
<path d="M11.8571 17.4286L7.95238 13.0952L9.04762 12.1429L6.28571 9.09524L7.38095 8.14286L4.61905 5.09524L8.95238 1.2381L10.3333 2.71429L12.7143 0.666667L14.0952 2.09524L15 1.28571C14.8095 1.19048 14.5714 1.04762 14.381 0.952381C13 0.380952 11.5238 0 9.95238 0C4.47619 0 0 4.42857 0 9.85714C0 15.2857 4.47619 19.7143 10 19.7143C11.8095 19.7143 13.4762 19.2381 14.9048 18.4286C15.381 18.1429 15.8095 17.8571 16.2381 17.5714L14.2381 15.3333L11.8571 17.4286Z" fill="#137ABE"/>
<path d="M10.8095 4.09524L12.381 5.85714L14.1905 4.28571L12.5714 2.52381L10.8095 4.09524Z" fill="#137ABE"/>
<path d="M15.8095 7.80952L14.1905 6.04762L12.4286 7.66667L14.0476 9.38095L15.8095 7.80952Z" fill="#137ABE"/>
<path d="M17.3333 11.5238L15.7143 9.7619L13.9524 11.3333L15.5714 13.1429L17.3333 11.5238Z" fill="#137ABE"/>
<path d="M17.4286 5.71429L16.2381 6.7619L17.3333 7.95238L18.4762 6.90476L17.4286 5.71429Z" fill="#137ABE"/>
<path d="M17.7619 10.2381L18.8095 11.4286L20 10.381L18.9048 9.19048L17.7619 10.2381Z" fill="#137ABE"/>
<path d="M14.7143 3.28571L15.8095 4.47619L16.9524 3.42857L15.9048 2.2381L14.7143 3.28571Z" fill="#137ABE"/>
<path d="M15.5238 14.9048L17.1429 16.6667L18.9048 15.0952L17.2857 13.3333L15.5238 14.9048Z" fill="#137ABE"/>
</svg>
