<svg width="40" height="40" viewBox="-6 0 40 27" fill="none" xmlns="http://www.w3.org/2000/svg"><g clip-path="url(#clip0_4076_357)">
<path d="M18.1253 19.9767V7.10122C19.9576 6.69276 21.393 5.98454 22.3977 4.96752C23.7894 3.5585 23.8446 2.10502 23.8413 1.82832C23.8306 0.999053 23.1709 0.364955 22.3417 0.335309C21.5042 0.31225 20.8083 0.975994 20.7432 1.80197C20.6732 2.707 19.1638 4.4133 13.9625 4.4133C8.65256 4.4133 6.91332 2.61147 6.7338 1.65127C6.62674 0.825293 5.89053 0.206842 5.04891 0.304839C4.19658 0.384719 3.57072 1.13987 3.6506 1.99302C3.6679 2.16513 4.04753 5.32245 8.59904 6.78087V20.0022C3.53366 21.3742 3.12603 24.7711 3.10874 24.9515C3.0305 25.7783 3.62343 26.4857 4.44693 26.5968C5.26796 26.708 6.04123 26.1192 6.18782 25.3023C6.3591 24.3429 8.09258 22.5312 13.4182 22.5312C18.6194 22.5312 20.1289 24.2383 20.1989 25.0816C20.1882 25.9364 20.8742 26.6397 21.7298 26.6479C21.7356 26.6479 21.743 26.6479 21.7471 26.6479C22.5937 26.6479 23.287 25.9652 23.2969 25.117C23.2994 24.8403 23.2459 23.386 21.8533 21.9778C20.9524 21.0637 19.6974 20.4 18.1253 19.9767ZM11.6971 19.4908V7.39191C12.3962 7.46356 13.1332 7.51297 13.9592 7.51297C14.3265 7.51297 14.6757 7.4965 15.0248 7.4825V19.4867C14.5093 19.4513 13.9773 19.4291 13.4174 19.4291C12.8088 19.4282 12.2356 19.4505 11.6971 19.4908Z" fill="white"/>
</g>
<defs>
<clipPath id="clip0_4076_357">
<rect width="26.3521" height="26.3529" fill="white" transform="translate(0.294067 0.294113)"/>
</clipPath>
</defs>
</svg>
