<svg width="28" height="26" viewBox="0 0 28 26" fill="none" xmlns="http://www.w3.org/2000/svg">
<path fill-rule="evenodd" clip-rule="evenodd" d="M16.666 0H11.3327C8.50371 0 5.7906 1.12381 3.79021 3.12419C1.78982 5.12458 0.666016 7.83769 0.666016 10.6667C0.666016 19.3333 9.99935 23.3333 16.666 26V21.3333C19.495 21.3333 22.2081 20.2095 24.2085 18.2091C26.2089 16.2088 27.3327 13.4956 27.3327 10.6667C27.3327 7.83769 26.2089 5.12458 24.2085 3.12419C22.2081 1.12381 19.495 0 16.666 0ZM9.99962 10.6666C9.99962 9.93022 9.40267 9.33327 8.66629 9.33327C7.92991 9.33327 7.33296 9.93022 7.33296 10.6666C7.33296 11.403 7.92991 11.9999 8.66629 11.9999C9.40267 11.9999 9.99962 11.403 9.99962 10.6666ZM12.6663 10.6666C12.6663 9.93022 13.2632 9.33327 13.9996 9.33327C14.736 9.33327 15.333 9.93022 15.333 10.6666C15.333 11.403 14.736 11.9999 13.9996 11.9999C13.2632 11.9999 12.6663 11.403 12.6663 10.6666ZM20.6663 10.6666C20.6663 9.93022 20.0693 9.33327 19.333 9.33327C18.5966 9.33327 17.9996 9.93022 17.9996 10.6666C17.9996 11.403 18.5966 11.9999 19.333 11.9999C20.0693 11.9999 20.6663 11.403 20.6663 10.6666Z" fill="white"/>
</svg>
