<svg width="18" height="21" viewBox="0 0 18 21" fill="none" xmlns="http://www.w3.org/2000/svg">
<path d="M9 0C11.3869 0 13.6761 0.948211 15.364 2.63604C17.0518 4.32387 18 6.61305 18 9V16.5C18.0004 17.2479 17.7611 17.9763 17.3173 18.5784C16.8735 19.1804 16.2486 19.6245 15.534 19.8455C14.8194 20.0664 14.0529 20.0527 13.3467 19.8062C12.6406 19.5598 12.0319 19.0936 11.61 18.476C11.3488 18.9387 10.9693 19.3236 10.5105 19.5915C10.0516 19.8594 9.52982 20.0005 8.9985 20.0005C8.46718 20.0005 7.94539 19.8594 7.48654 19.5915C7.02768 19.3236 6.64823 18.9387 6.387 18.476C5.97402 19.0788 5.3827 19.5373 4.69598 19.7871C4.00927 20.0369 3.26158 20.0655 2.5578 19.8689C1.85401 19.6722 1.22941 19.2603 0.771599 18.6907C0.313788 18.1212 0.0457238 17.4226 0.00500011 16.693L0 16.499V9C0 6.61305 0.948211 4.32387 2.63604 2.63604C4.32387 0.948211 6.61305 0 9 0ZM9 2C7.18502 1.99997 5.44098 2.70489 4.13577 3.96607C2.83056 5.22726 2.06623 6.94609 2.004 8.76L2 9V16.446L2.002 16.584C2.01923 16.8838 2.12604 17.1715 2.3086 17.4099C2.49116 17.6483 2.74107 17.8264 3.02599 17.9212C3.31091 18.016 3.61773 18.0231 3.90672 17.9416C4.19572 17.8601 4.45361 17.6937 4.647 17.464L4.735 17.348C4.92648 17.0672 5.18636 16.8399 5.49009 16.6874C5.79382 16.535 6.13139 16.4624 6.47094 16.4766C6.81049 16.4908 7.14082 16.5913 7.43075 16.7687C7.72068 16.946 7.96064 17.1942 8.128 17.49C8.21474 17.6443 8.34092 17.7728 8.49364 17.8623C8.64635 17.9518 8.82011 17.9992 8.99712 17.9995C9.17414 17.9998 9.34806 17.9531 9.50108 17.8641C9.6541 17.7751 9.78073 17.647 9.868 17.493C10.0281 17.2088 10.2552 16.9681 10.5296 16.7919C10.8041 16.6156 11.1174 16.5091 11.4424 16.4817C11.7674 16.4543 12.0942 16.5068 12.3943 16.6346C12.6943 16.7624 12.9586 16.9617 13.164 17.215L13.261 17.345C13.4346 17.5999 13.6826 17.7952 13.9711 17.9041C14.2597 18.013 14.5748 18.0303 14.8735 17.9537C15.1723 17.8771 15.4402 17.7102 15.6407 17.4759C15.8412 17.2415 15.9645 16.951 15.994 16.644L16 16.5V9C16 7.14348 15.2625 5.36301 13.9497 4.05025C12.637 2.7375 10.8565 2 9 2ZM9 10C10.105 10 11 11.12 11 12.5C11 13.88 10.105 15 9 15C7.895 15 7 13.88 7 12.5C7 11.12 7.895 10 9 10ZM6.5 6C6.89782 6 7.27936 6.15804 7.56066 6.43934C7.84196 6.72064 8 7.10218 8 7.5C8 7.89782 7.84196 8.27936 7.56066 8.56066C7.27936 8.84196 6.89782 9 6.5 9C6.10218 9 5.72064 8.84196 5.43934 8.56066C5.15804 8.27936 5 7.89782 5 7.5C5 7.10218 5.15804 6.72064 5.43934 6.43934C5.72064 6.15804 6.10218 6 6.5 6ZM11.5 6C11.8978 6 12.2794 6.15804 12.5607 6.43934C12.842 6.72064 13 7.10218 13 7.5C13 7.89782 12.842 8.27936 12.5607 8.56066C12.2794 8.84196 11.8978 9 11.5 9C11.1022 9 10.7206 8.84196 10.4393 8.56066C10.158 8.27936 10 7.89782 10 7.5C10 7.10218 10.158 6.72064 10.4393 6.43934C10.7206 6.15804 11.1022 6 11.5 6Z" fill="#FE2E47"/>
</svg>
