<svg width="40" height="40" viewBox="-5 0 40 27" fill="none" xmlns="http://www.w3.org/2000/svg"><g clip-path="url(#clip0_4076_384)">
<path d="M26.5498 14.299C26.96 11.8458 26.0574 9.53904 24.1361 8.12669C23.1272 7.38551 21.9694 7.0034 20.9334 7.01163V5.77387C20.9334 2.49045 18.2215 1.93704 16.5102 1.93704C15.3622 1.93704 14.2965 2.36857 13.5043 3.15504C13.5027 3.15669 13.5018 3.15834 13.5002 3.15998C12.6594 2.35787 11.5451 1.93704 10.4622 1.93704C9.31748 1.93704 8.25019 2.36857 7.45795 3.15504C7.45136 3.15998 7.44642 3.16987 7.44066 3.17563C6.62948 2.49869 5.61736 2.1314 4.62583 2.1314C3.47948 2.1314 2.41219 2.56292 1.61995 3.3494C1.01548 3.94975 0.294067 5.03845 0.294067 6.8074C0.294067 7.61363 0.946303 8.26587 1.75336 8.26587C2.5596 8.26587 3.21266 7.61363 3.21266 6.8074C3.21266 5.17763 4.29313 5.05081 4.62501 5.05081C5.31924 5.05081 6.1296 5.51034 6.1296 6.8074V19.1521C6.1296 19.9583 6.78266 20.6106 7.58889 20.6106C8.39513 20.6106 9.04819 19.9575 9.04819 19.1521V6.6114C9.04819 4.98163 10.3197 4.8581 10.6689 4.8581C11.0181 4.8581 12.2147 4.95116 12.2147 6.84281C12.2147 9.20716 12.1776 19.1513 12.1776 19.1513C12.1776 19.9575 12.8298 20.6098 13.6369 20.6098C14.4431 20.6098 15.0962 19.9567 15.0962 19.1513V6.6114C15.0962 4.98163 16.1767 4.85563 16.5085 4.85563C17.2028 4.85563 18.014 5.31434 18.014 6.6114C18.014 6.6114 18.056 19.9303 18.0543 20.7975C16.8684 21.4926 15.7171 21.9472 14.8483 22.1119C14.0561 22.2618 13.5348 23.0235 13.6838 23.8166C13.8164 24.5166 14.4283 25.0041 15.1168 25.0041C15.2049 25.0041 15.2988 24.9942 15.3885 24.9794C16.5596 24.7562 18.1902 24.1188 19.8504 23.1042C21.4118 23.9039 23.5448 24.2893 24.6261 24.4441C25.4134 24.5503 26.1636 24.0019 26.2764 23.2055C26.3909 22.4059 25.8375 21.668 25.0378 21.5535C24.2077 21.4333 23.3438 21.2447 22.6076 21.0372C24.5165 19.2888 26.0952 17.0175 26.5498 14.299ZM20.9811 18.5666C20.9828 17.9234 20.9852 17.211 20.9885 16.4674C20.9968 14.1063 21.0058 11.4686 21.0058 9.9154C21.3328 9.93187 21.9496 10.0957 22.5516 10.5899C23.0968 11.037 23.9664 12.0516 23.6708 13.8165C23.3694 15.6307 22.3103 17.2481 20.9811 18.5666Z" fill="white"/>
</g>
<defs>
<clipPath id="clip0_4076_384">
<rect width="26.3529" height="26.3529" fill="white" transform="translate(0.294067 0.294113)"/>
</clipPath>
</defs>
</svg>
