<svg width="14" height="13" viewBox="0 0 14 13" fill="none" xmlns="http://www.w3.org/2000/svg">
<path d="M9.64737 1.7271C9.64737 2.68564 10.4159 3.45419 11.3745 3.45419C12.333 3.45419 13.1016 2.68564 13.1016 1.7271C13.1016 0.768549 12.333 0 11.3745 0C10.4159 0 9.64737 0.768549 9.64737 1.7271Z" fill="#910AFB"/>
<path d="M-0.000549316 1.7271C-0.000549316 2.68564 0.768 3.45419 1.72655 3.45419C2.68509 3.45419 3.45364 2.68564 3.45364 1.7271C3.45364 0.768549 2.68509 0 1.72655 0C0.768 0 -0.000549316 0.768549 -0.000549316 1.7271Z" fill="#910AFB"/>
<path fill-rule="evenodd" clip-rule="evenodd" d="M6.55106 10.9587C4.1561 10.9587 3.45419 9.06573 3.45419 6.909V6.07523C3.45419 5.11668 2.68564 4.28857 1.7271 4.28857C0.768549 4.28857 0 5.11668 0 6.07523C0 9.43014 2.97775 12.1498 6.55106 12.1498V10.9587Z" fill="#910AFB"/>
<path fill-rule="evenodd" clip-rule="evenodd" d="M6.55051 10.9587C8.94546 10.9587 9.64737 9.06573 9.64737 6.909V6.07523C9.64737 5.11668 10.4159 4.28857 11.3745 4.28857C12.333 4.28857 13.1016 5.11668 13.1016 6.07523C13.1016 9.43014 10.1238 12.1498 6.55051 12.1498V10.9587Z" fill="#910AFB"/>
</svg>
