<svg width="24" height="24" viewBox="0 0 24 24" fill="none" xmlns="http://www.w3.org/2000/svg">
<path d="M22.9998 5.00062H20.6048C20.8458 4.52422 20.9806 4.00119 20.9998 3.46764C20.9651 2.5244 20.5613 1.63252 19.8755 0.984069C19.1896 0.335616 18.2765 -0.017534 17.3328 0.000670431C16.2088 0.0490848 15.119 0.401823 14.1797 1.02123C13.2405 1.64065 12.487 2.50348 11.9999 3.51763C11.5179 2.50632 10.7702 1.64493 9.83675 1.02549C8.90328 0.406053 7.81906 0.0518329 6.69993 0.000670431C6.66193 0.000670431 6.62393 0.000670431 6.58593 0.000670431C5.65574 0.00216008 4.76235 0.364246 4.09361 1.0108C3.42486 1.65736 3.03284 2.53802 2.99997 3.46764V3.53363C3.01948 4.04417 3.14874 4.54452 3.37897 5.00062H0.99999C0.734776 5.00062 0.480425 5.10598 0.29289 5.29351C0.105356 5.48104 0 5.7354 0 6.00061L0 9.00058C0 9.26579 0.105356 9.52014 0.29289 9.70768C0.480425 9.89521 0.734776 10.0006 0.99999 10.0006H22.9998C23.265 10.0006 23.5193 9.89521 23.7069 9.70768C23.8944 9.52014 23.9998 9.26579 23.9998 9.00058V6.00061C23.9998 5.7354 23.8944 5.48104 23.7069 5.29351C23.5193 5.10598 23.265 5.00062 22.9998 5.00062ZM17.3638 2.00065C17.7723 1.99005 18.1693 2.13612 18.4735 2.40888C18.7777 2.68165 18.966 3.06046 18.9998 3.46764C18.9856 3.87695 18.8139 4.26496 18.5204 4.55063C18.2269 4.83629 17.8344 4.99751 17.4248 5.00062H13.4779C14.0999 3.74163 15.3368 2.00065 17.3638 2.00065ZM4.99995 3.50063C5.02555 3.09143 5.20727 2.70767 5.5076 2.42855C5.80793 2.14943 6.20395 1.99626 6.61393 2.00065C8.68291 2.00865 9.8949 3.73163 10.5239 5.00062H6.62393C6.21333 5.00371 5.81695 4.85038 5.51531 4.57178C5.21368 4.29317 5.02941 3.91019 4.99995 3.50063Z" fill="white"/>
<path d="M14.002 12.0006V24.0005H19.0019C19.7975 24.0005 20.5606 23.6844 21.1232 23.1218C21.6858 22.5592 22.0019 21.7962 22.0019 21.0005V12.0006H14.002Z" fill="white"/>
<path d="M10.0019 12.0006H2.00195V21.0005C2.00195 21.7962 2.31802 22.5592 2.88062 23.1218C3.44323 23.6844 4.20628 24.0005 5.00192 24.0005H10.0019V12.0006Z" fill="white"/>
</svg>
