<svg width="17" height="17" viewBox="-12 0 40 17" fill="none" xmlns="http://www.w3.org/2000/svg">
<path d="M9.32348 10.2536H13.4752C12.7465 12.3136 10.7727 13.7906 8.46198 13.7735C5.65821 13.7528 3.33987 11.5103 3.23102 8.70906C3.11435 5.70637 5.52378 3.22636 8.50159 3.22636C9.86314 3.22636 11.1056 3.74504 12.0424 4.59496C12.2642 4.79632 12.602 4.7976 12.8202 4.59224L14.3451 3.1573C14.5835 2.93287 14.5844 2.55385 14.3467 2.32866C12.8611 0.92156 10.8683 0.0445056 8.6708 0.00160084C3.98368 -0.0898907 0.03286 3.75235 0.000211487 8.4394C-0.032727 13.1616 3.78611 17 8.50159 17C13.0364 17 16.7409 13.45 16.989 8.97809C16.9956 8.92202 17 7.0272 17 7.0272H9.32348C9.00883 7.0272 8.75378 7.28219 8.75378 7.59679V9.68399C8.75378 9.99858 9.00888 10.2536 9.32348 10.2536Z" fill="white"/>
</svg>
