<svg width="22" height="20" viewBox="0 0 22 20" fill="none" xmlns="http://www.w3.org/2000/svg">
<path d="M19.016 15C19.5893 15 20.0727 15.2 20.466 15.6C20.8593 16 21.0527 16.4667 21.046 17L13.016 20L6.016 18V9H7.966L15.236 11.69C15.756 11.8967 16.016 12.27 16.016 12.81C16.016 13.1233 15.9027 13.3967 15.676 13.63C15.4493 13.8633 15.1627 13.9867 14.816 14H12.016L10.266 13.33L9.936 14.27L12.016 15H19.016ZM15.016 1.23C15.7227 0.41 16.6227 0 17.716 0C18.6227 0 19.3893 0.333333 20.016 1C20.6427 1.66667 20.976 2.43333 21.016 3.3C21.016 3.98667 20.6827 4.80667 20.016 5.76C19.3493 6.71333 18.6927 7.51 18.046 8.15C17.3993 8.79 16.3893 9.74 15.016 11C13.6293 9.74 12.6093 8.79 11.956 8.15C11.3027 7.51 10.646 6.71333 9.986 5.76C9.326 4.80667 9.00267 3.98667 9.016 3.3C9.016 2.39333 9.33933 1.62667 9.986 1C10.6327 0.373333 11.4127 0.04 12.326 0C13.3927 0 14.2893 0.41 15.016 1.23ZM0 9H4.016V20H0V9Z" fill="#FC4029"/>
</svg>
