<svg width="40" height="40" viewBox="-5 0 40 27" fill="none" xmlns="http://www.w3.org/2000/svg">
    <g clip-path="url(#clip0_4076_414)">
<path d="M21.0994 9.15337C19.2768 9.15337 17.67 10.0494 16.657 11.4108C16.1496 10.3187 15.6522 8.83135 15.6522 7.17595C15.6522 5.14253 14.0034 3.77539 11.5491 3.77539C10.2915 3.77539 8.99026 4.15588 8.09585 4.8831C7.00049 4.04635 5.41262 3.5769 4.12207 3.5769C3.09589 3.5769 2.2023 3.85445 1.53932 4.37907C0.971051 4.82875 0.294067 5.67868 0.294067 7.1776C0.294067 7.85211 0.840925 8.39732 1.51461 8.39732C2.1883 8.39732 2.73516 7.85211 2.73516 7.1776C2.73516 6.58297 2.90235 6.1646 3.71934 6.04518C5.17049 5.82775 6.83001 6.7724 6.95519 7.1776V17.1462C6.95519 17.8199 7.50205 18.3659 8.17574 18.3659C8.84943 18.3659 9.39546 17.8199 9.39546 17.1462V7.1776C9.39546 6.74769 10.3887 6.21813 11.5483 6.21813C12.0828 6.21813 12.5646 6.33508 12.8693 6.53521C13.1115 6.69581 13.2095 6.88358 13.2095 7.1776C13.2095 10.7066 14.9349 13.5233 15.5756 14.4482C15.5707 14.5338 15.5501 14.6162 15.5501 14.7035C15.5501 15.574 15.7692 16.3836 16.1241 17.1166C15.3763 18.2539 13.2803 20.8441 9.64995 20.9223C8.97626 20.938 8.44093 21.4931 8.45493 22.1701C8.46976 22.8355 9.01332 23.3643 9.67548 23.3643C9.68371 23.3643 9.69277 23.3643 9.70101 23.3643C13.8642 23.2761 16.4667 20.728 17.721 19.0775C18.6607 19.8039 19.822 20.2552 21.0977 20.2552C24.159 20.2552 26.647 17.7672 26.647 14.7076C26.647 11.6447 24.1606 9.15337 21.0994 9.15337ZM21.0994 17.8125C19.3863 17.8125 17.992 16.4182 17.992 14.7043C17.992 12.9913 19.3863 11.5969 21.0994 11.5969C22.8141 11.5969 24.2084 12.9913 24.2084 14.7043C24.2084 16.4174 22.8141 17.8125 21.0994 17.8125Z" fill="white"/>
</g>
<defs>
<clipPath id="clip0_4076_414">
<rect width="26.3529" height="26.3529" fill="white" transform="translate(0.294067 0.294128)"/>
</clipPath>
</defs>
</svg>
