<svg width="40" height="40" viewBox="-5 0 40 27" fill="none" xmlns="http://www.w3.org/2000/svg">
<g clip-path="url(#clip0_4817_28167)">
<path d="M25.2804 20.3523C25.0836 19.3909 24.1405 18.7666 23.1832 18.965C22.2202 19.1609 21.6008 20.1008 21.7984 21.063C21.8424 21.288 19.9213 23.86 18.5539 23.2465C17.1865 22.6329 17.0836 20.1323 17.9686 18.9907C19.9063 16.4984 24.2816 10.1804 23.052 5.3809C22.5655 3.48218 21.2687 2.03012 19.2637 1.16171C16.2276 -0.068685 13.6606 0.00852573 11.6315 1.39666C8.78549 3.3427 8.05406 7.24143 7.87058 9.37344C7.85896 9.37344 7.84983 9.36929 7.8382 9.36929C4.39029 9.36929 1.58496 12.1746 1.58496 15.6225C1.58496 19.0696 4.39029 21.8749 7.8382 21.8749C11.2853 21.8749 14.0898 19.0696 14.0898 15.6225C14.0898 13.488 13.0122 11.6026 11.3741 10.4727C11.4048 8.96995 11.839 5.55691 13.6415 4.32818C14.6278 3.66234 16.0632 3.70219 17.8864 4.44275C19.1492 4.9882 19.4721 5.74371 19.605 6.26426C20.1712 8.4685 18.4252 12.608 15.1599 16.8089C12.7066 19.9646 13.1342 23.3992 16.2982 25.9953C18.1728 27.1709 21.023 26.5225 22.1346 25.8509C23.8889 24.7965 25.7644 22.7209 25.2804 20.3523ZM7.83737 18.3174C6.35044 18.3174 5.14164 17.1078 5.14164 15.6225C5.14164 14.1356 6.35044 12.9251 7.83737 12.9251C9.3243 12.9251 10.5331 14.1356 10.5331 15.6225C10.5323 17.1078 9.32264 18.3174 7.83737 18.3174Z" fill="white"/>
</g>
<defs>
<clipPath id="clip0_4817_28167">
<rect width="26.3529" height="26.3529" fill="white" transform="translate(0.294067 0.294113)"/>
</clipPath>
</defs>
</svg>
