<svg width="17" height="17" viewBox="-12 0 40 17" fill="none" xmlns="http://www.w3.org/2000/svg">
<path d="M11.0599 8.49734C11.0599 9.90912 9.91444 11.0545 8.50266 11.0545C7.09088 11.0545 5.94547 9.90912 5.94547 8.49734C5.94547 7.08555 7.09088 5.94014 8.50266 5.94014C9.91444 5.94014 11.0599 7.09088 11.0599 8.49734ZM8.50266 0C3.81448 0 0 3.81448 0 8.50266C0 13.1908 3.81448 17 8.50266 17C10.2181 17 11.875 16.4886 13.2921 15.519L13.3187 15.503L12.1733 14.1711L12.152 14.1818C11.0599 14.8797 9.80257 15.2526 8.50266 15.2526C4.77875 15.2526 1.74741 12.2212 1.74741 8.49734C1.74741 4.77343 4.77875 1.74209 8.50266 1.74209C12.2266 1.74209 15.2579 4.77343 15.2579 8.49734C15.2579 8.98214 15.2046 9.46694 15.0981 9.95174C14.885 10.8308 14.2723 11.0971 13.8088 11.0599C13.3453 11.0226 12.8019 10.6923 12.7966 9.88248V8.49734C12.7966 6.12661 10.8681 4.19806 8.49733 4.19806C6.1266 4.19806 4.19806 6.12661 4.19806 8.49734C4.19806 10.8681 6.1266 12.7966 8.49733 12.7966C9.64807 12.7966 10.7295 12.3438 11.5447 11.5287C12.0188 12.2639 12.7913 12.7274 13.6703 12.7966C13.7449 12.8019 13.8248 12.8073 13.8994 12.8073C14.5174 12.8073 15.13 12.5995 15.6255 12.2266C16.1369 11.8377 16.5152 11.2783 16.723 10.607C16.7549 10.5005 16.8189 10.2501 16.8189 10.2501V10.2394C16.9414 9.70135 17 9.16327 17 8.49734C17.0053 3.81448 13.1908 0 8.50266 0Z" fill="white"/>
</svg>
