<svg width="24" height="24" viewBox="0 0 24 24" fill="none" xmlns="http://www.w3.org/2000/svg">
<path d="M20 11.9998C19.9998 10.2166 19.4039 8.48469 18.3069 7.07895C17.2099 5.6732 15.6747 4.67424 13.9451 4.24069C12.2155 3.80714 10.3906 3.96386 8.76028 4.68596C7.12992 5.40806 5.78753 6.65415 4.94629 8.22635C4.10504 9.79855 3.81316 11.6067 4.11699 13.3638C4.42083 15.1208 5.30296 16.726 6.62331 17.9244C7.94366 19.1228 9.62653 19.8458 11.4047 19.9784C13.1829 20.1111 14.9544 19.6459 16.438 18.6568L17.548 20.3208C15.9062 21.4185 13.975 22.0029 12 21.9998C6.477 21.9998 2 17.5228 2 11.9998C2 6.47676 6.477 1.99976 12 1.99976C17.523 1.99976 22 6.47676 22 11.9998V13.4998C22.0001 14.2485 21.7601 14.9776 21.3152 15.5798C20.8703 16.1821 20.244 16.6258 19.5283 16.8458C18.8126 17.0658 18.0453 17.0504 17.3389 16.8021C16.6326 16.5537 16.0245 16.0853 15.604 15.4658C14.9366 16.1597 14.083 16.6463 13.1457 16.8669C12.2085 17.0875 11.2275 17.0328 10.3206 16.7093C9.41366 16.3859 8.61943 15.8075 8.03331 15.0436C7.44718 14.2797 7.09408 13.3628 7.01644 12.4031C6.9388 11.4433 7.13991 10.4816 7.59562 9.63343C8.05133 8.78524 8.74225 8.08667 9.58537 7.62166C10.4285 7.15664 11.3879 6.94495 12.3485 7.01202C13.309 7.07909 14.2297 7.42207 15 7.99975H17V13.4998C17 13.8976 17.158 14.2791 17.4393 14.5604C17.7206 14.8417 18.1022 14.9998 18.5 14.9998C18.8978 14.9998 19.2794 14.8417 19.5607 14.5604C19.842 14.2791 20 13.8976 20 13.4998V11.9998ZM12 8.99975C11.2044 8.99975 10.4413 9.31582 9.87868 9.87843C9.31607 10.441 9 11.2041 9 11.9998C9 12.7954 9.31607 13.5585 9.87868 14.1211C10.4413 14.6837 11.2044 14.9998 12 14.9998C12.7956 14.9998 13.5587 14.6837 14.1213 14.1211C14.6839 13.5585 15 12.7954 15 11.9998C15 11.2041 14.6839 10.441 14.1213 9.87843C13.5587 9.31582 12.7956 8.99975 12 8.99975Z" fill="white"/>
</svg>
