<svg width="17" height="17" viewBox="-20 0 50 17" fill="none" xmlns="http://www.w3.org/2000/svg">
<path d="M4.6072 12.6432C3.1874 12.4916 1.9019 12.1504 0.808268 11.2975C0.673963 11.1837 0.539657 11.0889 0.405351 10.9752C-0.0743122 10.5203 -0.131872 9.98958 0.251859 9.45885C0.57803 9.00393 1.11525 8.87125 1.69085 9.13662C1.80597 9.19348 1.9019 9.25034 1.99783 9.32616C4.03161 10.7099 6.85203 10.7478 8.90498 9.38303C9.11604 9.23139 9.32709 9.09871 9.57651 9.04184C10.0754 8.90916 10.5167 9.09871 10.7853 9.51571C11.0922 9.98958 11.0731 10.4634 10.7085 10.8425C10.1329 11.4112 9.46139 11.8282 8.69393 12.1315C7.98403 12.3968 7.19738 12.5485 6.41074 12.6432C6.52585 12.7759 6.58341 12.8328 6.66016 12.9086C7.71542 13.9511 8.77068 14.9936 9.82594 16.0551C10.1905 16.4152 10.2672 16.8512 10.0562 17.2682C9.84512 17.7231 9.36546 18.0264 8.8858 17.9885C8.57881 17.9695 8.34857 17.8179 8.13752 17.6094C7.35087 16.8133 6.52585 16.0361 5.75839 15.24C5.52815 15.0126 5.41304 15.0505 5.22117 15.259C4.41534 16.074 3.6095 16.8701 2.78448 17.6662C2.41994 18.0264 1.97865 18.0832 1.55654 17.8937C1.09607 17.6852 0.808268 17.2113 0.846641 16.7564C0.865828 16.4531 1.01932 16.2067 1.23037 15.9982C2.26644 14.9747 3.3217 13.9322 4.35778 12.9086C4.43452 12.8138 4.49208 12.738 4.6072 12.6432Z" fill="white"/>
<path d="M5.47199 8.99987C3.01239 8.99987 1 6.95021 1 4.49062C1.01863 1.99376 3.03103 0 5.52789 0C8.02474 0 10.0185 2.04966 9.99987 4.56515C9.98124 7.02474 7.95021 9.0185 5.47199 8.99987ZM7.70798 4.49062C7.70798 3.26082 6.72042 2.29189 5.50925 2.29189C4.27946 2.29189 3.29189 3.27946 3.31053 4.50925C3.31053 5.72042 4.29809 6.68935 5.52789 6.68935C6.73905 6.70798 7.70798 5.72041 7.70798 4.49062Z" fill="white"/>
</svg>
