<svg width="40" height="40" viewBox="-7 0 40 27" fill="none" xmlns="http://www.w3.org/2000/svg"><g clip-path="url(#clip0_4076_175)">
<path d="M25.1334 5.80187C23.1536 3.18305 19.6256 2.07293 16.5481 3.10152C15.2329 3.5421 14.1739 4.34587 13.3964 5.39999C12.6347 4.43975 11.6283 3.70352 10.3914 3.28928C7.31551 2.25904 3.78751 3.36834 1.80774 5.98799C-0.112728 8.53187 0.142566 10.9325 0.692684 12.4988C1.2988 14.2192 2.66833 15.8885 3.68539 16.1438C4.49162 16.3414 5.31515 15.8572 5.51939 15.0468C5.69645 14.3435 5.3481 13.6279 4.72057 13.3215C4.46445 13.0992 3.56433 12.1192 3.36092 10.7653C3.20692 9.74328 3.48939 8.7781 4.22068 7.81046C5.40986 6.23834 7.60045 5.5441 9.43033 6.15434C11.0609 6.70199 11.9586 8.17446 11.9586 10.2992V22.5212V22.7098C11.9586 23.5465 12.6347 24.2209 13.4706 24.2209C14.3073 24.2209 14.9826 23.5465 14.9826 22.7098V22.5212V10.3V10.1139C14.9826 7.98752 15.8802 6.51587 17.51 5.96822C19.3432 5.35716 21.5313 6.0514 22.7196 7.62352C23.4517 8.59199 23.7317 9.55881 23.5786 10.5775C23.3743 11.933 22.475 12.913 22.2206 13.1338C21.5922 13.4409 21.243 14.1549 21.4201 14.8599C21.6243 15.671 22.4446 16.1619 23.2557 15.9568C24.2728 15.7007 25.6407 14.0314 26.2485 12.3119C26.7986 10.7439 27.0539 8.34246 25.1334 5.80187Z" fill="white"/>
</g>
<defs>
<clipPath id="clip0_4076_175">
<rect width="26.3529" height="26.3529" fill="white" transform="translate(0.294067 0.294113)"/>
</clipPath>
</defs>
</svg>
