<svg width="40" height="40" viewBox="-5 0 40 27" fill="none" xmlns="http://www.w3.org/2000/svg">
    <g clip-path="url(#clip0_4076_368)">
<path d="M23.3158 16.5605C23.2442 16.6247 17.5108 21.6804 11.0889 21.5404C11.8663 20.5266 12.3489 19.2707 12.3489 17.8938C12.3489 14.5708 9.64524 11.868 6.32148 11.868C2.99771 11.8672 0.294067 14.5708 0.294067 17.8946C0.294067 20.8593 2.44677 23.3151 5.26819 23.815C7.34348 24.762 9.41219 25.159 11.3952 25.159C19.0368 25.159 25.3829 19.5293 25.7181 19.2262C26.4543 18.5617 26.5103 17.4301 25.8498 16.6964C25.1852 15.9577 24.0529 15.9 23.3158 16.5605ZM6.32148 20.3339C4.97583 20.3339 3.88219 19.2419 3.88219 17.8938C3.88219 16.549 4.97583 15.4553 6.32148 15.4553C7.66713 15.4553 8.76077 16.549 8.76077 17.8938C8.76077 19.2411 7.66713 20.3339 6.32148 20.3339Z" fill="white"/>
<path d="M3.62527 10.3799C3.69692 10.3165 9.43033 5.26167 15.853 5.40167C15.0764 6.41543 14.5922 7.67049 14.5922 9.04661C14.5922 12.3704 17.2959 15.0732 20.6204 15.0732C23.9434 15.0732 26.647 12.3704 26.647 9.04661C26.647 6.08355 24.4935 3.62779 21.6729 3.12708C19.5968 2.17755 17.5289 1.78226 15.5459 1.78226C7.90433 1.78226 1.55821 7.4119 1.22304 7.71496C0.485977 8.37955 0.430801 9.51108 1.09127 10.244C1.75668 10.9844 2.88904 11.042 3.62527 10.3799ZM20.6204 6.60732C21.9653 6.60732 23.0589 7.70014 23.0589 9.04661C23.0589 10.3931 21.9653 11.4859 20.6204 11.4859C19.274 11.4859 18.1803 10.3931 18.1803 9.04661C18.1803 7.70096 19.274 6.60732 20.6204 6.60732Z" fill="white"/>
</g>
<defs>
<clipPath id="clip0_4076_368">
<rect width="26.3529" height="26.3529" fill="white" transform="translate(0.294067 0.294113)"/>
</clipPath>
</defs>
</svg>
