<svg width="20" height="20" viewBox="0 0 20 20" fill="none" xmlns="http://www.w3.org/2000/svg">
<path d="M1.99988 12V14H-0.00012207V12H1.99988ZM1.99988 8V10H-0.00012207V8H1.99988ZM1.99988 4V6H-0.00012207V4H1.99988ZM1.99988 0V2H-0.00012207V0H1.99988ZM5.99988 0V2H3.99988V0H5.99988ZM9.99988 0V2H7.99988V0H9.99988ZM13.9999 0V2H11.9999V0H13.9999Z" fill="#979797"/>
<path d="M11.9999 4H13.9999V6H18.9999C19.2651 6 19.5194 6.10536 19.707 6.29289C19.8945 6.48043 19.9999 6.73478 19.9999 7V14.5V15.338V19V20H19H6.99988C6.73466 20 6.48031 19.8946 6.29277 19.7071C6.10523 19.5196 5.99988 19.2652 5.99988 19V14H3.99988V12H5.99988V7C5.99988 6.73478 6.10523 6.48043 6.29277 6.29289C6.48031 6.10536 6.73466 6 6.99988 6H11.9999V4Z" fill="#979797"/>
</svg>
