<svg width="50" height="50" viewBox="0 0 30 1" fill="none" xmlns="http://www.w3.org/2000/svg">
<path d="M18 30C25.324 30 31.73 33.15 35.214 37.85L31.53 39.592C28.694 36.232 23.694 34 18 34C12.306 34 7.30596 36.232 4.46996 39.592L0.787964 37.848C4.27196 33.148 10.676 30 18 30ZM18 0C20.6521 0 23.1957 1.05357 25.071 2.92893C26.9464 4.8043 28 7.34784 28 10V16C28 18.6522 26.9464 21.1957 25.071 23.0711C23.1957 24.9464 20.6521 26 18 26C15.3478 26 12.8043 24.9464 10.9289 23.0711C9.05353 21.1957 7.99996 18.6522 7.99996 16V10C7.99996 7.34784 9.05353 4.8043 10.9289 2.92893C12.8043 1.05357 15.3478 0 18 0Z" fill="#898A8D"/>
</svg>
