<svg width="40" height="40" viewBox="-7 0 40 27" fill="none" xmlns="http://www.w3.org/2000/svg"><g clip-path="url(#clip0_4076_416)">
<path d="M24.8542 12.5372H18.6038C19.1811 6.7916 22.3961 4.62661 22.5847 4.50473C23.4222 3.98922 23.6849 2.89396 23.1768 2.05151C22.6621 1.20495 21.5619 0.938958 20.7153 1.44871C20.4938 1.58129 15.6541 4.6192 15.0027 12.5372H10.9667C10.3136 4.6192 5.47473 1.58211 5.25403 1.44871C4.41323 0.941428 3.32703 1.20907 2.81152 2.04163C2.29271 2.87501 2.55047 3.97522 3.37974 4.50308C3.53044 4.60108 6.78245 6.75619 7.36138 12.5372H2.08601C1.09534 12.5372 0.294067 13.3393 0.294067 14.33C0.294067 15.319 1.09534 16.1219 2.08601 16.1219H7.35067C6.74951 21.2457 3.65561 22.1837 3.53455 22.2158C2.5727 22.4472 1.97896 23.4148 2.21036 24.3767C2.408 25.1977 3.14174 25.7511 3.95125 25.7511C4.0896 25.7511 4.22959 25.7338 4.37123 25.7009C4.62487 25.6383 10.2288 24.1947 10.9617 16.1186H15.0084C15.7405 24.1947 21.3445 25.6383 21.5998 25.7009C21.7398 25.733 21.8797 25.7511 22.0156 25.7511C22.812 25.7511 23.5276 25.2109 23.7359 24.403C23.9813 23.4577 23.4073 22.4851 22.4636 22.2241C22.3187 22.1837 19.2215 21.2457 18.6203 16.1219H24.8551C25.8449 16.1219 26.647 15.319 26.647 14.33C26.647 13.3393 25.8449 12.5372 24.8542 12.5372Z" fill="white"/>
</g>
<defs>
<clipPath id="clip0_4076_416">
<rect width="26.3529" height="26.3529" fill="white" transform="translate(0.294067 0.294128)"/>
</clipPath>
</defs>
</svg>
