<svg width="40" height="40" viewBox="-7 0 40 27" fill="none" xmlns="http://www.w3.org/2000/svg"><g clip-path="url(#clip0_4076_386)">
<path d="M26.2006 18.2075L22.4886 15.5481C22.16 15.3126 21.7301 15.2796 21.3735 15.4625C21.0152 15.6461 20.7912 16.0143 20.7912 16.417V18.0511C20.0804 17.8806 19.1357 17.5165 19.1357 16.9532V7.04603C19.1357 4.65427 16.66 3.54405 15.0984 3.54405C14.0516 3.54405 13.0773 3.93856 12.3533 4.65674C12.3525 4.65757 12.3508 4.65922 12.3492 4.66004C11.5824 3.92785 10.5644 3.54405 9.57611 3.54405C8.53096 3.54405 7.55663 3.93856 6.8335 4.65674C6.82774 4.66086 6.8228 4.6691 6.81703 4.67404C6.07743 4.05634 5.15335 3.72195 4.24738 3.72195C3.2014 3.72195 2.22707 4.11646 1.50395 4.83464C0.952129 5.38152 0.294067 6.37479 0.294067 7.98906C0.294067 8.72619 0.890359 9.32083 1.62666 9.32083C2.36297 9.32083 2.95843 8.72454 2.95843 7.98906C2.95843 6.50162 3.94512 6.38714 4.24738 6.38714C4.88156 6.38714 5.62198 6.80636 5.62198 7.98906V19.2601C5.62198 19.9972 6.21745 20.5919 6.95375 20.5919C7.69006 20.5919 8.28552 19.9948 8.28552 19.2601V7.81198C8.28552 6.32455 9.27303 6.20924 9.57529 6.20924C11.3806 6.20924 11.1426 7.94294 11.1426 8.46098C11.1426 8.97903 11.1426 19.2601 11.1426 19.2601C11.1426 19.9972 11.7389 20.5919 12.4744 20.5919C13.2115 20.5919 13.807 19.9948 13.807 19.2601V7.81198C13.807 6.32455 14.792 6.20924 15.0959 6.20924C15.7301 6.20924 16.4697 6.62928 16.4697 7.81198V16.9573C16.4697 19.4957 19.055 20.5161 20.787 20.764V22.3231C20.787 22.7448 21.035 23.1261 21.4179 23.3016C21.5612 23.3658 21.7095 23.3979 21.8602 23.3979C22.1164 23.3979 22.3667 23.3073 22.566 23.1335L26.278 19.891C26.5268 19.6752 26.6618 19.3589 26.6445 19.0303C26.6322 18.6984 26.4675 18.3978 26.2006 18.2075Z" fill="white"/>
</g>
<defs>
<clipPath id="clip0_4076_386">
<rect width="26.3529" height="26.3529" fill="white" transform="translate(0.294067 0.294113)"/>
</clipPath>
</defs>
</svg>
