<svg width="17" height="18" viewBox="0 0 17 18" fill="none" xmlns="http://www.w3.org/2000/svg">
<path d="M0.864361 13.1668C0.730685 12.9422 0.607981 12.7119 0.496584 12.4767C0.367433 12.204 0.302858 12.0676 0.282164 11.9133C0.257358 11.7282 0.260531 11.6847 0.311912 11.5052C0.354777 11.3555 0.576195 11.0232 1.01903 10.3587C1.03031 10.3418 1.04138 10.3247 1.05225 10.3075C1.30054 9.9144 1.43205 9.46223 1.43223 9.00102C1.43241 8.53982 1.30125 8.08755 1.05326 7.69426C1.04175 7.67601 1.03001 7.65792 1.01805 7.63999C0.575965 6.97765 0.354925 6.64648 0.31195 6.49697C0.260476 6.31788 0.25723 6.27416 0.281693 6.08944C0.302117 5.93521 0.366258 5.79909 0.49454 5.52683C0.727951 5.03146 1.01089 4.55947 1.3393 4.11771C1.51853 3.87661 1.60814 3.75606 1.73161 3.6663C1.87735 3.56035 1.92118 3.54043 2.09684 3.50029C2.24564 3.46629 2.61982 3.49564 3.36817 3.55434C3.41441 3.55797 3.46082 3.56039 3.50736 3.56158C3.98205 3.57376 4.45096 3.45812 4.86219 3.22746C5.27342 2.99679 5.61094 2.66009 5.83739 2.25463C5.84688 2.23762 5.85617 2.22052 5.86525 2.20333C6.24285 1.48812 6.43166 1.13051 6.53703 1.02452C6.66753 0.89326 6.69253 0.876505 6.86353 0.805677C7.00161 0.748484 7.14923 0.734274 7.44448 0.705855C8.0093 0.651486 8.57832 0.651761 9.14309 0.706676C9.43803 0.735354 9.5855 0.749694 9.72344 0.806944C9.89423 0.877833 9.91924 0.894619 10.0496 1.02581C10.1548 1.13177 10.3433 1.48897 10.7203 2.20337C10.7296 2.22104 10.7392 2.23862 10.7489 2.2561C10.9755 2.66145 11.3132 2.99799 11.7245 3.22848C12.1358 3.45897 12.6048 3.57442 13.0794 3.56206C13.1256 3.56085 13.1717 3.55844 13.2176 3.55484C13.9663 3.49612 14.3407 3.46675 14.4896 3.50084C14.6654 3.54106 14.7094 3.56111 14.8551 3.66722C14.9787 3.75717 15.0681 3.8778 15.2471 4.11906C15.416 4.34678 15.5747 4.58495 15.7222 4.83343C15.8573 5.06052 15.9801 5.29115 16.0908 5.52462C16.2197 5.79669 16.2841 5.93272 16.3049 6.08721C16.3296 6.27213 16.3264 6.31621 16.275 6.49557C16.2321 6.64541 16.0108 6.97708 15.5683 7.6404C15.5567 7.65768 15.5454 7.67511 15.5343 7.69268C15.286 8.08579 15.1545 8.53796 15.1543 8.99917C15.1542 9.46037 15.2853 9.91264 15.5333 10.3059C15.5448 10.3242 15.5566 10.3423 15.5685 10.3602C16.0106 11.0225 16.2316 11.3537 16.2746 11.5032C16.3261 11.6823 16.3293 11.726 16.3049 11.9108C16.2844 12.065 16.2203 12.2011 16.092 12.4734C15.8586 12.9687 15.5757 13.4407 15.2473 13.8825C15.068 14.1236 14.9784 14.2441 14.855 14.3339C14.7092 14.4398 14.6654 14.4598 14.4897 14.4999C14.3409 14.5339 13.9667 14.5046 13.2184 14.4459C13.1722 14.4422 13.1257 14.4398 13.0792 14.4386C12.6045 14.4264 12.1356 14.5421 11.7244 14.7727C11.3131 15.0034 10.9756 15.3401 10.7492 15.7456C10.7397 15.7626 10.7304 15.7797 10.7213 15.7969C10.3437 16.5121 10.1549 16.8697 10.0495 16.9757C9.91904 17.1069 9.89404 17.1237 9.72304 17.1945C9.58495 17.2517 9.43733 17.2659 9.14209 17.2943C8.57726 17.3487 8.00825 17.3484 7.44348 17.2935C7.14853 17.2648 7.00106 17.2505 6.86313 17.1932C6.69234 17.1224 6.66733 17.1056 6.53701 16.9744C6.43176 16.8684 6.24327 16.5112 5.86629 15.7968C5.85696 15.7791 5.84741 15.7616 5.83764 15.7441C5.61102 15.3387 5.27337 15.0022 4.86206 14.7717C4.45075 14.5412 3.98181 14.4258 3.50714 14.4381C3.46125 14.4393 3.41547 14.4417 3.36986 14.4453C2.62038 14.5038 2.24564 14.5331 2.09677 14.499C1.92095 14.4587 1.87729 14.4388 1.73146 14.3327C1.608 14.2428 1.51834 14.122 1.33902 13.8803C1.1686 13.6507 1.01015 13.4125 0.864361 13.1668ZM5.71975 13.3301C6.63389 13.8423 7.32121 14.6643 7.6499 15.6384C8.07796 15.6776 8.50774 15.6784 8.93581 15.6393C9.2647 14.665 9.95235 13.843 10.8668 13.3309C11.7806 12.8173 12.8575 12.6497 13.8907 12.8601C14.1395 12.5201 14.3539 12.1576 14.5324 11.7784C13.8285 11.0146 13.4396 10.0253 13.4403 9.0001C13.4403 7.9501 13.8435 6.96926 14.5324 6.22176C14.3527 5.84272 14.1373 5.48062 13.889 5.1401C12.8564 5.35035 11.7802 5.18299 10.8668 4.6701C9.95267 4.15791 9.26535 3.33592 8.93666 2.36176C8.5086 2.3226 8.07882 2.32176 7.65076 2.36093C7.32186 3.33522 6.63422 4.15723 5.71975 4.66926C4.80596 5.18286 3.72911 5.35053 2.69586 5.1401C2.44757 5.48033 2.23273 5.84248 2.05419 6.22176C2.75811 6.98556 3.14698 7.97492 3.14622 9.0001C3.14622 10.0501 2.74304 11.0309 2.05419 11.7784C2.23388 12.1575 2.44926 12.5196 2.69757 12.8601C3.73017 12.6498 4.80633 12.8172 5.71975 13.3301ZM8.29328 11.5001C7.61074 11.5001 6.95615 11.2367 6.47352 10.7679C5.99089 10.299 5.71975 9.66314 5.71975 9.0001C5.71975 8.33706 5.99089 7.70117 6.47352 7.23233C6.95615 6.76349 7.61074 6.5001 8.29328 6.5001C8.97582 6.5001 9.63041 6.76349 10.113 7.23233C10.5957 7.70117 10.8668 8.33706 10.8668 9.0001C10.8668 9.66314 10.5957 10.299 10.113 10.7679C9.63041 11.2367 8.97582 11.5001 8.29328 11.5001ZM8.29328 9.83343C8.5208 9.83343 8.73899 9.74563 8.89987 9.58935C9.06074 9.43307 9.15112 9.22111 9.15112 9.0001C9.15112 8.77908 9.06074 8.56712 8.89987 8.41084C8.73899 8.25456 8.5208 8.16676 8.29328 8.16676C8.06577 8.16676 7.84757 8.25456 7.6867 8.41084C7.52582 8.56712 7.43544 8.77908 7.43544 9.0001C7.43544 9.22111 7.52582 9.43307 7.6867 9.58935C7.84757 9.74563 8.06577 9.83343 8.29328 9.83343Z" fill="white"/>
</svg>
