<svg width="40" height="40" viewBox="-5 0 40 27" fill="none" xmlns="http://www.w3.org/2000/svg"><path d="M23.8103 4.54386C23.8032 4.37187 23.7743 4.19776 23.7072 4.03567C23.6338 3.85802 23.5286 3.70018 23.3974 3.5657C23.3945 3.56146 23.3931 3.55721 23.3903 3.55367C23.2541 3.41636 23.0903 3.30807 22.9103 3.23304C22.7303 3.15802 22.5405 3.11768 22.3471 3.11768H22.3456H14.4677C13.6525 3.11768 12.9904 3.78087 12.9904 4.59907C12.9904 5.41798 13.6525 6.08046 14.4677 6.08046H18.7727L11.7156 13.135L9.17954 10.4956C8.61345 9.90816 7.67751 9.88976 7.09095 10.4581C6.50298 11.025 6.48534 11.9622 7.05142 12.5524L9.62211 15.2257L3.55172 21.2939C2.97434 21.8701 2.97292 22.8093 3.54889 23.3883C3.83688 23.6792 4.21521 23.8236 4.59425 23.8236C4.97117 23.8236 5.34879 23.6792 5.63748 23.3911L11.6712 17.3597L14.5722 20.3784C14.8616 20.6799 15.2477 20.8321 15.6366 20.8321C16.0043 20.8321 16.3756 20.6962 16.6608 20.4173C17.248 19.8504 17.265 18.9119 16.7003 18.323L13.7654 15.2689L20.8676 8.16984V12.3769C20.8676 13.1958 21.5297 13.859 22.3471 13.859C23.1616 13.859 23.8237 13.1958 23.8237 12.3769V4.59907C23.8223 4.57854 23.8117 4.56297 23.8103 4.54386Z" fill="white"/>
</svg>
