<svg width="40" height="40" viewBox="-7 0 40 27" fill="none" xmlns="http://www.w3.org/2000/svg">
    <g clip-path="url(#clip0_4076_171)">
<path d="M24.99 0.688583H24.9859C24.7586 0.688583 19.6659 0.78576 15.9395 7.15988C15.19 6.97458 14.4126 6.86423 13.6064 6.86423C12.712 6.86423 11.8482 6.996 11.0255 7.22411C7.2924 0.789054 2.17005 0.688583 1.94193 0.688583C1.94028 0.688583 1.93864 0.688583 1.93699 0.688583C1.03275 0.688583 0.311341 1.41247 0.294047 2.31505C0.279223 3.21929 1.00393 3.96953 1.90981 4C2.05887 4.00494 5.31922 4.17788 8.01793 8.64882C5.53828 10.4071 3.91181 13.2943 3.91181 16.5588C3.91181 21.9027 8.26005 26.2526 13.6056 26.2526C18.9519 26.2526 23.3018 21.9044 23.3018 16.5588C23.3018 13.2079 21.5913 10.2481 18.9989 8.50717C21.6597 4.21 24.8196 4.00823 25.0164 4C25.9231 3.98682 26.6495 3.24811 26.647 2.33894C26.6453 1.42729 25.905 0.688583 24.99 0.688583ZM13.6056 22.9404C10.0875 22.9404 7.22405 20.0778 7.22405 16.5596C7.22405 13.0415 10.0875 10.1765 13.6056 10.1765C17.1262 10.1765 19.9888 13.0407 19.9888 16.5588C19.9896 20.0778 17.1253 22.9404 13.6056 22.9404Z" fill="white"/>
</g>
<defs>
<clipPath id="clip0_4076_171">
<rect width="26.3529" height="26.3529" fill="white" transform="translate(0.294067 0.294113)"/>
</clipPath>
</defs>
</svg>
