<svg width="301" height="258" viewBox="0 0 301 258" fill="none" xmlns="http://www.w3.org/2000/svg">
    <defs>
        <filter id="filter0_i_6375_17148" x="17.7734" y="17.7735" width="143.242" height="156.805" filterUnits="userSpaceOnUse" color-interpolation-filters="sRGB">
            <feFlood flood-opacity="0" result="BackgroundImageFix"/>
            <feBlend mode="normal" in="SourceGraphic" in2="BackgroundImageFix" result="shape"/>
            <feColorMatrix in="SourceAlpha" type="matrix" values="0 0 0 0 0 0 0 0 0 0 0 0 0 0 0 0 0 0 127 0" result="hardAlpha"/>
            <feOffset dx="5" dy="6"/>
            <feGaussianBlur stdDeviation="2"/>
            <feComposite in2="hardAlpha" operator="arithmetic" k2="-1" k3="1"/>
            <feColorMatrix type="matrix" values="0 0 0 0 1 0 0 0 0 1 0 0 0 0 1 0 0 0 0.35 0"/>
            <feBlend mode="normal" in2="shape" result="effect1_innerShadow_6375_17148"/>
        </filter>
        <filter id="filter1_i_6375_17148" x="192.403" y="40.0968" width="98.6006" height="78.0372" filterUnits="userSpaceOnUse" color-interpolation-filters="sRGB">
            <feFlood flood-opacity="0" result="BackgroundImageFix"/>
            <feBlend mode="normal" in="SourceGraphic" in2="BackgroundImageFix" result="shape"/>
            <feColorMatrix in="SourceAlpha" type="matrix" values="0 0 0 0 0 0 0 0 0 0 0 0 0 0 0 0 0 0 127 0" result="hardAlpha"/>
            <feOffset dx="5" dy="6"/>
            <feGaussianBlur stdDeviation="2"/>
            <feComposite in2="hardAlpha" operator="arithmetic" k2="-1" k3="1"/>
            <feColorMatrix type="matrix" values="0 0 0 0 1 0 0 0 0 1 0 0 0 0 1 0 0 0 0.35 0"/>
            <feBlend mode="normal" in2="shape" result="effect1_innerShadow_6375_17148"/>
        </filter>
        <filter id="filter2_i_6375_17148" x="149.045" y="158.684" width="72.3496" height="72.4344" filterUnits="userSpaceOnUse" color-interpolation-filters="sRGB">
            <feFlood flood-opacity="0" result="BackgroundImageFix"/>
            <feBlend mode="normal" in="SourceGraphic" in2="BackgroundImageFix" result="shape"/>
            <feColorMatrix in="SourceAlpha" type="matrix" values="0 0 0 0 0 0 0 0 0 0 0 0 0 0 0 0 0 0 127 0" result="hardAlpha"/>
            <feOffset dx="5" dy="6"/>
            <feGaussianBlur stdDeviation="2"/>
            <feComposite in2="hardAlpha" operator="arithmetic" k2="-1" k3="1"/>
            <feColorMatrix type="matrix" values="0 0 0 0 1 0 0 0 0 1 0 0 0 0 1 0 0 0 0.35 0"/>
            <feBlend mode="normal" in2="shape" result="effect1_innerShadow_6375_17148"/>
        </filter>
        <linearGradient id="paint0_linear_6375_17148" x1="24.6299" y1="31.6989" x2="114.847" y2="200.553" gradientUnits="userSpaceOnUse">
            <stop stop-color="#97FB67"/>
            <stop offset="0.490779" stop-color="#75B95B"/>
            <stop offset="1" stop-color="#3D956E"/>
        </linearGradient>
        <linearGradient id="paint1_linear_6375_17148" x1="191.373" y1="71.9287" x2="267.002" y2="132.427" gradientUnits="userSpaceOnUse">
            <stop stop-color="#6230EA"/>
            <stop offset="0.490779" stop-color="#FF3A6B"/>
            <stop offset="1" stop-color="#FF4694"/>
        </linearGradient>
        <linearGradient id="paint2_linear_6375_17148" x1="154.692" y1="205.434" x2="223.085" y2="207.537" gradientUnits="userSpaceOnUse">
            <stop stop-color="#D467FB"/>
            <stop offset="0.490779" stop-color="#5B64B9"/>
            <stop offset="1" stop-color="#6E3D95"/>
        </linearGradient>
    </defs>
<path opacity="0.05" d="M161.419 138.089L215.163 191.821L197.24 209.745L174.085 186.59V257.333H148.752V186.565L125.597 209.745L107.674 191.821L161.419 138.089ZM161.419 4C183.167 4.00104 204.157 11.9941 220.397 26.4595C236.637 40.9249 246.996 60.8539 249.503 82.4573C265.263 86.7553 279.012 96.4553 288.347 109.862C297.682 123.269 302.008 139.529 300.57 155.802C299.132 172.075 292.021 187.325 280.48 198.887C268.939 210.449 253.701 217.587 237.431 219.055L237.419 194C237.439 174.077 229.635 154.943 215.687 140.717C201.739 126.491 182.763 118.311 162.844 117.937C142.925 117.563 123.655 125.026 109.184 138.719C94.7122 152.412 86.1963 171.24 85.4693 191.15L85.4186 194V219.055C69.1476 217.589 53.9091 210.453 42.3663 198.892C30.8235 187.331 23.7107 172.081 22.2711 155.808C20.8315 139.535 25.1567 123.273 34.4906 109.865C43.8245 96.4573 57.5735 86.7562 73.3346 82.4573C75.8389 60.8528 86.1964 40.9222 102.437 26.4563C118.678 11.9904 139.669 3.99827 161.419 4Z" fill="black"/>
<g filter="url(#filter0_i_6375_17148)">
<path d="M110.364 153.102L123.626 157.31L119.415 170.579L66.3419 153.736C29.7013 142.109 9.42533 102.983 21.0527 66.3419C32.6802 29.7013 71.8067 9.4253 108.447 21.0527C145.088 32.6801 165.364 71.8067 153.736 108.447C150.476 118.75 144.859 128.151 137.33 135.902C129.801 143.654 120.568 149.543 110.364 153.102ZM91.6052 74.1262C95.1242 75.2429 98.9426 74.916 102.221 73.2173C105.498 71.5186 107.967 68.5874 109.084 65.0684C110.201 61.5494 109.874 57.7309 108.175 54.453C106.476 51.1751 103.545 48.7062 100.026 47.5895C96.5073 46.4728 92.6888 46.7997 89.4109 48.4984C86.1329 50.1971 83.664 53.1283 82.5473 56.6473C81.4306 60.1663 81.7576 63.9848 83.4562 67.2627C85.1549 70.5406 88.0862 73.0095 91.6052 74.1262ZM56.6473 92.2419C60.1663 93.3586 63.9848 93.0316 67.2627 91.333C70.5407 89.6343 73.0095 86.703 74.1262 83.1841C75.2429 79.6651 74.916 75.8466 73.2173 72.5687C71.5187 69.2907 68.5874 66.8218 65.0684 65.7051C61.5494 64.5884 57.7309 64.9154 54.453 66.614C51.1751 68.3127 48.7062 71.244 47.5895 74.763C46.4728 78.282 46.7997 82.1004 48.4984 85.3784C50.1971 88.6563 53.1283 91.1252 56.6473 92.2419ZM109.721 109.084C113.24 110.201 117.058 109.874 120.336 108.175C123.614 106.476 126.083 103.545 127.2 100.026C128.316 96.5072 127.989 92.6888 126.291 89.4108C124.592 86.1329 121.661 83.664 118.142 82.5473C114.623 81.4306 110.804 81.7576 107.527 83.4562C104.249 85.1549 101.78 88.0861 100.663 91.6051C99.5463 95.1241 99.8732 98.9426 101.572 102.221C103.271 105.498 106.202 107.967 109.721 109.084ZM74.763 127.2C78.282 128.316 82.1004 127.989 85.3784 126.291C88.6563 124.592 91.1252 121.661 92.2419 118.142C93.3586 114.623 93.0317 110.804 91.333 107.526C89.6343 104.249 86.7031 101.78 83.1841 100.663C79.6651 99.5463 75.8466 99.8732 72.5687 101.572C69.2907 103.271 66.8219 106.202 65.7052 109.721C64.5884 113.24 64.9154 117.058 66.6141 120.336C68.3127 123.614 71.244 126.083 74.763 127.2Z" fill="url(#paint0_linear_6375_17148)"/>
</g>
<g filter="url(#filter1_i_6375_17148)">
<path d="M256.054 59.3782L271.871 40.7754C272.098 40.5076 272.395 40.3072 272.729 40.1959C273.062 40.0846 273.42 40.0667 273.762 40.1441C274.105 40.2216 274.42 40.3914 274.672 40.6351C274.925 40.8788 275.105 41.187 275.194 41.5261L286.94 86.2641C287.03 86.603 287.024 86.9601 286.924 87.2963C286.824 87.6325 286.633 87.935 286.373 88.1708C286.112 88.4067 285.792 88.5668 285.447 88.6337C285.102 88.7006 284.745 88.6717 284.415 88.5502L261.499 80.1176L265.583 95.6722C265.841 96.6545 265.697 97.6992 265.183 98.5767C264.668 99.4542 263.826 100.092 262.841 100.351L210.829 114.008C209.844 114.266 208.797 114.124 207.918 113.613C207.039 113.101 206.4 112.262 206.142 111.28L192.528 59.431C192.27 58.4488 192.414 57.404 192.929 56.5266C193.443 55.6491 194.285 55.0108 195.271 54.7521L247.282 41.0955C248.267 40.8368 249.315 40.9789 250.194 41.4905C251.073 42.0021 251.712 42.8413 251.969 43.8236L256.054 59.3782ZM210.306 66.6396L212.251 74.0465L219.681 72.0956L217.736 64.6887L210.306 66.6396Z" fill="url(#paint1_linear_6375_17148)"/>
</g>
<g filter="url(#filter2_i_6375_17148)">
<path d="M149.818 196.913C149.329 196.427 149.051 195.767 149.045 195.078C149.038 194.388 149.303 193.723 149.782 193.227L182.923 159.464C183.931 158.436 185.582 158.423 186.609 159.431L216.621 188.89C217.11 189.376 217.388 190.035 217.394 190.725C217.401 191.415 217.136 192.079 216.657 192.575L183.516 226.339C183.031 226.832 182.371 227.112 181.679 227.118C180.988 227.124 180.323 226.856 179.83 226.372L149.818 196.913ZM155.384 195.017L159.133 198.696L162.812 194.948L159.063 191.269L155.384 195.017ZM181.138 168.78L184.886 172.459L188.565 168.711L184.817 165.032L181.138 168.78ZM162.881 202.376L166.629 206.055L170.308 202.306L166.56 198.627L162.881 202.376ZM188.634 176.138L192.383 179.817L196.062 176.069L192.314 172.39L188.634 176.138ZM170.377 209.734L174.125 213.413L177.804 209.665L174.056 205.986L170.377 209.734ZM196.131 183.496L199.879 187.175L203.558 183.427L199.81 179.748L196.131 183.496ZM177.874 217.092L181.622 220.771L185.301 217.023L181.553 213.344L177.874 217.092ZM203.627 190.855L207.375 194.534L211.055 190.785L207.306 187.106L203.627 190.855Z" fill="url(#paint2_linear_6375_17148)"/>
</g>
</svg>
