<svg width="40" height="40" viewBox="-7 0 40 27" fill="none" xmlns="http://www.w3.org/2000/svg"><g clip-path="url(#clip0_4076_385)">
<path d="M1.75995 16.1577H7.49995C8.30948 16.1577 8.96583 15.5022 8.96583 14.6935L8.96419 14.4036C8.95183 13.2828 8.9263 10.9481 10.2184 9.64033C10.9201 8.93127 11.9487 8.58621 13.3627 8.58621C15.419 8.58621 16.7111 9.31504 17.4317 10.8773C18.0667 12.2592 18.0667 13.9169 18.0658 14.6927C18.0658 15.5006 18.7222 16.1561 19.5309 16.1561H25.177C25.9865 16.1561 26.6429 15.5006 26.6429 14.6927C26.6429 13.884 25.9865 13.2276 25.177 13.2276H20.9507C20.8749 12.2081 20.6641 10.9012 20.0917 9.65186C19.2517 7.82692 17.4021 5.65363 13.361 5.65363C11.154 5.65363 9.39489 6.30092 8.1316 7.57904C6.46724 9.26068 6.11066 11.6028 6.0423 13.226H1.75995C0.95042 13.226 0.294067 13.8815 0.294067 14.691C0.294067 15.5022 0.95042 16.1577 1.75995 16.1577Z" fill="white"/>
<path d="M25.182 18.3574H1.75995C0.95042 18.3574 0.294067 19.0129 0.294067 19.8216C0.294067 20.6312 0.95042 21.2875 1.75995 21.2875H25.182C25.9907 21.2875 26.647 20.6312 26.647 19.8216C26.647 19.0121 25.9907 18.3574 25.182 18.3574Z" fill="white"/>
</g>
<defs>
<clipPath id="clip0_4076_385">
<rect width="26.3529" height="26.3529" fill="white" transform="translate(0.294067 0.294113)"/>
</clipPath>
</defs>
</svg>
