<svg width="21" height="29" viewBox="0 0 21 29" fill="none" xmlns="http://www.w3.org/2000/svg">
<path d="M10.0011 28.6667C7.99731 28.6665 6.03977 28.0643 4.38231 26.9383C2.72485 25.8122 1.4439 24.2142 0.705563 22.3514C-0.0327772 20.4886 -0.19446 18.4469 0.241479 16.4911C0.677417 14.5353 1.69087 12.7556 3.15044 11.3827C4.93977 9.69867 9.33444 6.66667 8.66777 0C16.6678 5.33333 20.6678 10.6667 12.6678 18.6667C14.0011 18.6667 16.0011 18.6667 19.3344 15.3733C19.6944 16.404 20.0011 17.512 20.0011 18.6667C20.0011 21.3188 18.9475 23.8624 17.0722 25.7377C15.1968 27.6131 12.6533 28.6667 10.0011 28.6667Z" fill="white"/>
</svg>
