<svg width="17" height="17" viewBox="-7 0 40 13" fill="none" xmlns="http://www.w3.org/2000/svg">
<path d="M24.8689 12.6363C24.8369 12.5737 24.8096 12.52 24.7822 12.4753C24.3491 11.7108 23.5194 10.7675 22.2976 9.65429L22.2703 9.62746L22.2566 9.61405L22.2429 9.60064H22.2292C21.6731 9.08203 21.322 8.73332 21.1761 8.55449C20.9072 8.21471 20.8479 7.87047 20.9938 7.52175C21.0986 7.25798 21.4907 6.69913 22.1654 5.8497C22.521 5.39815 22.8037 5.03603 23.0134 4.76331C24.5133 2.80513 25.1652 1.55333 24.9646 1.01237L24.8871 0.887191C24.8369 0.811188 24.7002 0.739657 24.4859 0.677067C24.2671 0.614477 23.989 0.601064 23.6516 0.645772L19.9042 0.672596C19.8449 0.650242 19.7583 0.654713 19.6443 0.677067C19.5304 0.703891 19.4757 0.717303 19.4757 0.717303L19.4118 0.748598L19.3617 0.788835C19.3161 0.815659 19.2705 0.860366 19.2204 0.922957C19.1702 0.985547 19.1246 1.06155 19.0927 1.14649C18.6824 2.17476 18.222 3.1315 17.6977 4.0167C17.3786 4.54425 17.0822 5.00026 16.8133 5.38921C16.5443 5.77817 16.3209 6.05982 16.1385 6.24312C15.9562 6.42642 15.7921 6.57396 15.6416 6.68125C15.4957 6.79302 15.3818 6.83773 15.3043 6.81984C15.2268 6.80196 15.1538 6.78408 15.0809 6.77067C14.9578 6.69466 14.862 6.59184 14.7891 6.45772C14.7162 6.32359 14.666 6.15818 14.6387 5.96146C14.6113 5.76028 14.5976 5.59039 14.5931 5.44286C14.5885 5.2998 14.5931 5.09414 14.5976 4.83037C14.6068 4.5666 14.6113 4.38777 14.6113 4.29388C14.6113 3.97199 14.6159 3.6188 14.6295 3.23879C14.6432 2.85878 14.6523 2.55924 14.6615 2.34018C14.6706 2.12111 14.6751 1.88416 14.6751 1.63827C14.6751 1.39238 14.6615 1.20014 14.6295 1.05708C14.5976 0.918486 14.552 0.779893 14.4928 0.650242C14.4335 0.520591 14.3423 0.417765 14.2238 0.341762C14.1053 0.270231 13.9594 0.212111 13.7861 0.167404C13.3257 0.0645772 12.7422 0.0109284 12.031 0.00198699C10.4171 -0.0158959 9.38224 0.0869308 8.92179 0.310467C8.73943 0.404352 8.57531 0.529533 8.42943 0.69495C8.27442 0.88272 8.25163 0.985547 8.3656 1.00343C8.88532 1.07943 9.25459 1.26273 9.47342 1.55333L9.55092 1.70533C9.61018 1.8171 9.67401 2.01381 9.73327 2.291C9.79254 2.57265 9.83357 2.88113 9.85181 3.22091C9.89284 3.84234 9.89284 4.37436 9.85181 4.81696C9.80622 5.25956 9.76519 5.60381 9.72871 5.8497C9.68769 6.09559 9.63298 6.29677 9.55092 6.44877C9.47342 6.60078 9.41871 6.69466 9.39592 6.73043C9.36856 6.7662 9.35033 6.78408 9.33209 6.79302C9.21812 6.83326 9.10415 6.85561 8.98105 6.85561C8.85796 6.85561 8.71208 6.79749 8.53884 6.67678C8.3656 6.55607 8.18324 6.39513 8.00089 6.185C7.81397 5.97488 7.60426 5.68428 7.3672 5.30874C7.1347 4.9332 6.88851 4.4906 6.63777 3.98093L6.42806 3.60986C6.29586 3.37291 6.11806 3.0242 5.89467 2.56818C5.66673 2.11217 5.47069 1.67404 5.29745 1.24485C5.22907 1.06602 5.12422 0.931898 4.98289 0.838013L4.91906 0.797776C4.87803 0.76201 4.80509 0.726245 4.70935 0.690479C4.61362 0.650242 4.51332 0.623418 4.40847 0.605535L0.843399 0.632359C0.478686 0.632359 0.232504 0.712832 0.100296 0.873779L0.050148 0.949781C0.0136767 1.0079 0 1.07496 0 1.16885C0 1.26273 0.0273535 1.37897 0.0775015 1.51309C0.597217 2.71572 1.16708 3.86917 1.77798 4.98685C2.38887 6.10453 2.92226 6.99867 3.37359 7.67822C3.82493 8.35777 4.28538 9.00156 4.75494 9.60511C5.22451 10.2087 5.53452 10.5976 5.68496 10.7675C5.83541 10.9374 5.9585 11.067 6.04512 11.152L6.3688 11.4605C6.57851 11.6661 6.88396 11.9075 7.28514 12.1937C7.69088 12.4798 8.13766 12.7614 8.62546 13.0386C9.11782 13.3158 9.68769 13.5393 10.3351 13.7137C10.987 13.8881 11.6207 13.9596 12.2361 13.9238H13.7314C14.0369 13.897 14.2648 13.8031 14.4198 13.6422L14.47 13.5796C14.5065 13.5304 14.5384 13.4499 14.5657 13.3426C14.5976 13.2353 14.6113 13.1191 14.6113 12.9894C14.6022 12.6228 14.6295 12.292 14.6979 12.0014C14.7618 11.7063 14.8347 11.4873 14.9213 11.3397C15.0034 11.1922 15.0991 11.067 15.1994 10.9642C15.3043 10.8614 15.3772 10.7988 15.4228 10.7809C15.4638 10.7586 15.5003 10.7451 15.5277 10.7362C15.7374 10.6691 15.979 10.7362 16.2616 10.9329C16.5443 11.1341 16.8087 11.38 17.0549 11.6751C17.3011 11.9701 17.5974 12.2965 17.9484 12.6631C18.2949 13.0297 18.6004 13.3024 18.8602 13.4812L19.1201 13.6332C19.2933 13.7361 19.5213 13.8299 19.7993 13.9149C20.0774 13.9998 20.3191 14.0222 20.5288 13.9775L23.8613 13.9283C24.1896 13.9283 24.4494 13.8747 24.6272 13.7674C24.8096 13.6601 24.919 13.5438 24.9509 13.4142C24.9874 13.2845 24.9874 13.1415 24.9555 12.9805C24.9281 12.8151 24.8962 12.7033 24.8689 12.6363Z" fill="white"/>
</svg>
