<svg width="40" height="40" viewBox="-7 0 40 27" fill="none" xmlns="http://www.w3.org/2000/svg"><g clip-path="url(#clip0_4076_415)">
<path d="M1.63724 11.7494C3.03971 11.7494 3.93407 10.6673 4.65301 9.79271C5.37195 8.92224 5.85124 8.39436 6.44913 8.39436C6.76371 8.39436 7.01572 8.73365 7.56583 9.6906C8.20407 10.8024 9.16677 12.4791 11.2602 12.4791C13.4203 12.4791 14.3122 10.7818 14.9002 9.66095C15.1571 9.17012 15.4791 8.56071 15.6801 8.56071C16.0276 8.56071 16.5489 9.38918 16.9285 9.99118C17.6425 11.1219 18.5287 12.5326 20.2128 12.5326C21.8549 12.5326 23.0778 11.1631 24.1632 9.9533C24.5528 9.51848 25.1325 8.87283 25.4101 8.72377C26.1027 8.67107 26.647 8.0913 26.647 7.38554C26.647 6.64518 26.0467 6.04154 25.3047 6.04154C24.0603 6.04154 23.1388 7.07095 22.1645 8.1613C21.6367 8.75095 20.6558 9.84542 20.2103 9.84542C19.9772 9.79024 19.4543 8.95765 19.2015 8.55907C18.4883 7.42589 17.5108 5.87271 15.6809 5.87271C13.8568 5.87271 13.0555 7.39954 12.5243 8.40836C11.9272 9.54483 11.7041 9.79024 11.2618 9.79024C10.7998 9.79024 10.5165 9.42954 9.89642 8.35154C9.25324 7.23565 8.37372 5.70554 6.44913 5.70554C4.54183 5.70554 3.40783 7.08001 2.58101 8.08471C2.29936 8.42401 1.8316 8.99389 1.62324 9.06307C0.888656 9.0713 0.294067 9.67001 0.294067 10.4062C0.294067 11.1482 0.895244 11.7494 1.63724 11.7494Z" fill="white"/>
<path d="M25.3047 14.747C24.0603 14.747 23.1388 15.7765 22.1645 16.8652C21.6367 17.4556 20.6558 18.5501 20.2103 18.5501C19.9772 18.4949 19.4543 17.6632 19.2015 17.2637C18.4883 16.1297 17.5108 14.5774 15.6809 14.5774C13.8568 14.5774 13.0555 16.1042 12.5243 17.1139C11.9272 18.2495 11.7041 18.4941 11.2618 18.4941C10.7998 18.4941 10.5165 18.1334 9.89642 17.0562C9.25489 15.9403 8.37454 14.4086 6.44995 14.4086C4.54348 14.4086 3.40948 15.7839 2.58266 16.7886C2.30101 17.1295 1.83324 17.6977 1.62489 17.7669C0.888656 17.776 0.294067 18.373 0.294067 19.1093C0.294067 19.8496 0.895244 20.4525 1.63724 20.4525C3.03971 20.4525 3.93407 19.3703 4.65301 18.4966C5.37195 17.6253 5.85124 17.0974 6.44913 17.0974C6.76371 17.0974 7.01572 17.4375 7.56583 18.3936C8.20407 19.5062 9.16677 21.1821 11.2602 21.1821C13.4203 21.1821 14.3122 19.4856 14.9002 18.3656C15.1571 17.874 15.4791 17.2646 15.6801 17.2646C16.0276 17.2646 16.5489 18.093 16.9285 18.6942C17.6425 19.8266 18.5287 21.2356 20.2128 21.2356C21.8549 21.2356 23.0778 19.8669 24.1632 18.6572C24.5528 18.2232 25.1325 17.5767 25.4101 17.4268C26.1027 17.3741 26.647 16.7943 26.647 16.0886C26.647 15.3466 26.0467 14.747 25.3047 14.747Z" fill="white"/>
</g>
<defs>
<clipPath id="clip0_4076_415">
<rect width="26.3529" height="26.3529" fill="white" transform="translate(0.294067 0.294128)"/>
</clipPath>
</defs>
</svg>
